<svg xmlns="http://www.w3.org/2000/svg" data-name="Layer 1" viewBox="0 0 715 688">
  <path fill="currentcolor" d="m316.61 354.66 26.95 46.67L370.5 448H262.72l26.95-46.67Z" data-name="Path 421"/>
  <path fill="#e6e6e6" d="M50.5 263h113v113h-113z" data-name="Rectangle 48"/>
  <circle cx="244.5" cy="118.5" r="72.5" fill="currentcolor" data-name="Ellipse 68"/>
  <path fill="#ccc" d="M309.75 239.56a12 12 0 1 1 12 12 12 12 0 0 1-12-12Zm2 0a10 10 0 1 0 10-10 10 10 0 0 0-10 10Z" data-name="Path 422"/>
  <path fill="#ccc" d="m206.44 448.3-17.67-18.94 18.94-17.67 17.66 18.94Zm-14.85-18.85 14.94 16.03 16.03-14.95-14.95-16.02Z" data-name="Path 423"/>
  <path fill="#ccc" d="m60.55 178.89-14.38-15.42L61.6 149.1l14.38 15.41Zm-12.09-15.34 12.17 13.05 13.05-12.17L61.5 151.4Z" data-name="Path 424"/>
  <path fill="#3f3d56" d="M262.5 200a100 100 0 1 1 100-100 100 100 0 0 1-100 100Zm0-198a98 98 0 1 0 98 98 98 98 0 0 0-98-98Z" data-name="Path 425"/>
  <path fill="#3f3d56" d="m175.1 231.57 25.84-53.77 1.8.87-25.83 53.77z" data-name="Rectangle 50"/>
  <path fill="#3f3d56" d="m194.03 304.88.95-1.76 113.78 61.58-.95 1.76z" data-name="Rectangle 51"/>
  <path fill="#3f3d56" d="M195.5 377h-146V231h146Zm-144-2h142V233h-142Z" data-name="Path 426"/>
  <path fill="#3f3d56" d="M412.01 449H260.99l75.51-130.79Zm-147.55-2h144.09L336.5 322.21Z" data-name="Path 427"/>
  <path fill="#e6e6e6" d="M0 686h715v2H0z" data-name="Rectangle 53"/>
  <path fill="#e6e6e6" d="M206.3 623.63a31.4 31.4 0 0 0 30.33-5.34c10.62-8.92 13.95-23.6 16.66-37.2l8.02-40.23-16.78 11.55c-12.07 8.31-24.41 16.89-32.77 28.92s-12 28.47-5.28 41.5" data-name="Path 438"/>
  <path fill="#f2f2f2" d="M208.9 675.13c-2.12-15.38-4.3-30.97-2.8-46.52 1.3-13.81 5.52-27.3 14.1-38.36a63.82 63.82 0 0 1 16.38-14.84c1.63-1.03 3.14 1.56 1.51 2.59a60.67 60.67 0 0 0-24 28.95c-5.22 13.3-6.06 27.78-5.16 41.9.54 8.53 1.7 17.02 2.86 25.49a1.55 1.55 0 0 1-1.05 1.84 1.5 1.5 0 0 1-1.85-1.05Z" data-name="Path 439"/>
  <path fill="#e6e6e6" d="M348.7 653.94a22.26 22.26 0 0 0 20.46 7.6c9.69-1.64 17-9.42 23.52-16.77l19.33-21.73-14.4 1.05c-10.36.76-20.98 1.58-30.4 5.94s-17.55 13.1-18.1 23.48" data-name="Path 440"/>
  <path fill="#f2f2f2" d="M332.11 684.24c3.4-8.17 6.82-16.46 12.03-23.68 4.63-6.41 10.6-11.83 18-14.8a36.38 36.38 0 0 1 12.33-2.58c1.1-.03 1.1 1.68 0 1.71a34.58 34.58 0 0 0-20.15 7.32c-6.4 5.03-10.98 11.91-14.61 19.11a200.5 200.5 0 0 0-5.94 13.36.89.89 0 0 1-1.05.6.86.86 0 0 1-.6-1.04Z" data-name="Path 441"/>
  <path fill="#e6e6e6" d="M224.1 650.45a23.12 23.12 0 0 0 20.14 10.4c10.2-.49 18.7-7.6 26.35-14.36l22.64-19.99-14.98-.71c-10.78-.52-21.83-1-32.09 2.32s-19.72 11.32-21.6 21.94" data-name="Path 442"/>
  <path fill="#f2f2f2" d="M202.92 683.98c10.17-18 21.96-37.99 43.04-44.38a48.02 48.02 0 0 1 18.1-1.87c1.92.17 1.44 3.13-.48 2.97a44.61 44.61 0 0 0-28.88 7.64c-8.15 5.54-14.5 13.25-19.86 21.42-3.29 5.01-6.23 10.23-9.18 15.44-.94 1.67-3.69.47-2.74-1.22Z" data-name="Path 443"/>
  <path fill="#e6e6e6" d="M23.48 652.11a22.73 22.73 0 0 0 21.95-3.86c7.69-6.45 10.1-17.08 12.06-26.93l5.8-29.1-12.15 8.35c-8.73 6.02-17.66 12.22-23.7 20.93s-8.69 20.6-3.83 30.03" data-name="Path 461"/>
  <path fill="#f2f2f2" d="M24.52 687.36c-1.23-8.95-2.5-18.02-1.63-27.07.77-8.04 3.22-15.88 8.2-22.32a37.13 37.13 0 0 1 9.54-8.63c.95-.6 1.83.9.88 1.5a35.3 35.3 0 0 0-13.97 16.85c-3.04 7.73-3.52 16.16-3 24.37.32 4.97 1 9.9 1.67 14.83a.9.9 0 0 1-.61 1.08.88.88 0 0 1-1.07-.61Z" data-name="Path 462"/>
  <path fill="#3f3d56" d="M114.98 687.45c-.27-.43-6.49-10.82-8.65-32.39-1.97-19.79-.7-53.14 16.6-99.67 32.77-88.14-7.56-159.26-7.97-159.97l2-1.16c.1.18 10.5 18.32 16.65 47.19a205.86 205.86 0 0 1-8.53 114.74c-32.71 88-8.4 129.65-8.14 130.06Z" data-name="Path 481"/>
  <circle cx="149.3" cy="430.48" r="14.95" fill="currentcolor" data-name="Ellipse 75"/>
  <circle cx="105.61" cy="546.59" r="14.95" fill="currentcolor" data-name="Ellipse 78"/>
  <path fill="#e6e6e6" d="M122.61 687s-12.75-31.39 25.5-54.93Z" data-name="Path 482"/>
  <path fill="#e6e6e6" d="M106.93 686.43s-3.9-22.37-34-22.18Z" data-name="Path 483"/>
  <path fill="#ccc" d="M141.75 504.36a12 12 0 1 1 12 12 12 12 0 0 1-12-12Zm2 0a10 10 0 1 0 10-10 10 10 0 0 0-10 10Z" data-name="Path 484"/>
  <path fill="#ccc" d="M105.61 467.32a12 12 0 1 1 12 12 12 12 0 0 1-12-12Zm2 0a10 10 0 1 0 10-10 10 10 0 0 0-10 10Z" data-name="Path 485"/>
  <g data-name="girl ideation">
    <path fill="#9f616a" d="M637.91 438.62a12.45 12.45 0 0 1-10.45 1.92 12.44 12.44 0 0 1-8.82-15.22l.14-.48a12 12 0 0 1 .68-1.7l-24.45-109.78a9.96 9.96 0 1 1 19.08-5.7l.06.2 23.08 110.12a12.42 12.42 0 0 1 .69 20.64Z" data-name="Path 486"/>
    <path fill="#a0616a" d="M670.39 674.14h-13.27l-6.3-51.15h19.57Z" data-name="Path 487"/>
    <path fill="#2f2e41" d="M673.77 687H631v-.54a16.64 16.64 0 0 1 16.64-16.64h26.12Z" data-name="Path 490"/>
    <path fill="#a0616a" d="m537.42 673.73-12.61-4.09 9.74-50.61 18.62 6.03Z" data-name="Path 491"/>
    <path fill="#2f2e41" d="M536.69 687 496 673.84l.17-.52a16.65 16.65 0 0 1 20.96-10.71l24.85 8.04Z" data-name="Path 494"/>
    <circle cx="596.92" cy="261.36" r="22.38" fill="#9f616a" data-name="Ellipse 82"/>
    <path fill="#2f2e41" d="M627 348.34c3.11-11.56-11.14-47.8-12.3-52.4-5.55-1.29-18.43 1.17-26.34-.46-11.25 9.4-20.2 22.83-26.38 29.2-6.43 6.63-10.58 11.12-3.93 26.62 8.05 18.8 6.26 38.49 6.26 38.49l5.37 47.43s-22.37 62.65-20.58 104.72l-20.6 102.92s6.27 10.74 18.8 5.37c0 0 29.53-52.8 26.85-91.3l32.22-71.6s22.37 68.03 28.64 74.3l16.1 96.65s15.22 4.48 22.38 0c0 0 2.69-93.08-12.53-108.3 0 0-15.21-64.43-11.63-81.44s4.47-42.96-22.38-66.23c0 0 .27.13-8.05-15.21Z" data-name="Path 495"/>
    <path fill="#2f2e41" d="M608.6 226.77a19.36 19.36 0 0 0-3.74.37 16.38 16.38 0 0 0-7.14-1.64h-.65c-12.48 0-22.6 11.3-22.6 25.24h4.18l.68-5.15.99 5.15h3.48a49.32 49.32 0 0 0-1.62 12.64v25.69h6.33l3.66-9.52-.92 9.51h40.66l3.33-8.65-.83 8.65h4.58V268.9c0-23.27-13.61-42.13-30.4-42.13Z" data-name="Path 496"/>
    <path fill="#9f616a" d="M561.94 451.33a12.45 12.45 0 0 1-10.18-3.06 12.44 12.44 0 0 1-.9-17.57l.35-.37a12 12 0 0 1 1.38-1.2l28.35-108.83a9.96 9.96 0 0 1 19.59 3.62l-.05.23-29.73 108.5a12.42 12.42 0 0 1-8.8 18.68Z" data-name="Path 497"/>
  </g>
</svg>